# xmcd
#
# Track frame offsets: 
#        150
#        10361
#        23180
#        33815
#        46591
#        57032
#        68386
#        80093
#        93387
#        105330
#        117605
#        127811
#        138582
#        149726
#        158744
#        172593
#
# Disc length: 2471 seconds
#
# Revision: 0
# Processed by: cddbd v1.5.2PL0 Copyright (c) Steve Scherf et al.
# Submitted via: ExactAudioCopy v0.99pb5
#
DISCID=c409a510
DTITLE=Various Artist - Sixties - The Definitive Collection [CD 1 of 3)
DYEAR=2010
DGENRE=Oldies
TTITLE0=Del Sahnnon - Runaway
TTITLE1=The Archies - Sugar Sugar
TTITLE2=Andy Williams - Can't Get Used To Losing You
TTITLE3=Bobby Vinton - Blue Velvet
TTITLE4=The Lovin' Spoonful - Daydream
TTITLE5=The Byrds - Mr. Tambourine Man
TTITLE6=Johnny Cash - Ring Of Fire
TTITLE7=The Herd -  I Don't Want Our Loving To Die
TTITLE8=The Shirelles - Will You Love Me Tommorow
TTITLE9=Crispian St. Peters - You Were On My Mind
TTITLE10=Unit 4 and 2 - Concrete And Clay
TTITLE11=Chubby Checker - Let's Twist Again
TTITLE12=Chris Montez - Let's Dance
TTITLE13=B. Bumble and The Stingers - Nut Rocker
TTITLE14=Vanity Fare - Hinchin' A Ride
TTITLE15=Neil Christian - That's Nice
EXTD=
EXTT0=
EXTT1=
EXTT2=
EXTT3=
EXTT4=
EXTT5=
EXTT6=
EXTT7=
EXTT8=
EXTT9=
EXTT10=
EXTT11=
EXTT12=
EXTT13=
EXTT14=
EXTT15=
PLAYORDER=
